<svg xmlns="http://www.w3.org/2000/svg" viewBox="0 0 24 24" fill="none">
  <circle cx="12" cy="12" r="10" fill="#f7931a"/>
  <path d="M16.5 9.5c.3-2-1.2-3-3.2-3.7l.7-2.7-1.6-.4-.7 2.6c-.4-.1-.9-.2-1.3-.3l.7-2.6-1.6-.4-.7 2.7c-.4-.1-.7-.2-1.1-.2l-2.2-.5-.4 1.7s1.2.3 1.2.3c.6.2.8.6.7 1l-.8 3.2c.1 0 .1 0 .2.1l-.2-.1-1.1 4.5c-.1.2-.3.5-.7.4 0 0-1.2-.3-1.2-.3l-.8 1.9 2.1.5c.4.1.7.2 1.1.3l-.7 2.8 1.6.4.7-2.8c.5.1 1 .2 1.4.3l-.7 2.8 1.6.4.7-2.8c2.8.5 4.9.3 5.8-2.2.7-2-.1-3.2-1.5-3.9 1.1-.3 1.9-1 2.1-2.5zm-3.7 5.5c-.5 2-3.9 1-5 .7l.9-3.6c1.1.3 4.7.8 4.1 2.9zm.5-5.6c-.5 1.8-3.2.9-4.1.6l.8-3.3c.9.2 3.7.6 3.3 2.7z" fill="white"/>
</svg>