<svg xmlns="http://www.w3.org/2000/svg" viewBox="0 0 200 60" width="120" height="36">
  <path fill="#1DB954" d="M20.8 30C20.8 16.7 31.7 5.8 45 5.8s24.2 10.9 24.2 24.2-10.9 24.2-24.2 24.2S20.8 43.3 20.8 30z"/>
  <path fill="#FFFFFF" d="M36.2 23.5c6.4-2.1 15.1-2.3 21.2-.6.9.3 1.9-.3 2.2-1.2.3-.9-.3-1.9-1.2-2.2-7-2-16.6-1.7-23.9.7-1 .3-1.5 1.3-1.2 2.3.2.9 1.2 1.4 2.1 1.2l.8-.2zm.6 6.2c5.7-1.8 13.4-2 19.1-.5.8.2 1.6-.3 1.8-1.1.2-.8-.3-1.6-1.1-1.8-6.4-1.7-14.9-1.4-21.3.6-.8.3-1.3 1.1-1 1.9.2.8 1 1.3 1.8 1l.7-.1zm.4 6c5.1-1.5 11.9-1.6 16.8-.3.7.2 1.5-.2 1.7-.9.2-.7-.2-1.5-.9-1.7-5.6-1.4-13.1-1.3-18.8.4-.7.2-1.1 1-.9 1.7.2.7 1 1.1 1.7.9l.4-.1z"/>
</svg>
